<svg xmlns="http://www.w3.org/2000/svg" viewBox="0 0 57.33 82.6"><defs><style>.cls-1{fill:#fff;}</style></defs><g id="Layer_2" data-name="Layer 2"><g id="Layer_13" data-name="Layer 13"><g id="MiniLog"><path class="cls-1" d="M48.67,61.07V40.72c0-.37,0-.84.08-1.41a3.81,3.81,0,0,0-.08-1.4c0-.11-.1-.24-.31-.39a4.36,4.36,0,0,0-.7-.43c-.26-.13-.52-.25-.78-.35s-.44-.18-.55-.24q-4.44-2.64-8.89-5.14t-8.89-5.15Q23.63,29,18.6,32T8.42,37.91V61.07q4.61,2.82,9.33,5.5l9.63,5.5a3.29,3.29,0,0,0,.58.43,1.48,1.48,0,0,0,.59.27,1.46,1.46,0,0,0,.58-.27,5.94,5.94,0,0,1,.82-.43l5.11-3m13.38,2.07q-4.92,2.81-9.95,5.73T28.55,82.6L14.2,74.29Q7.09,70.19,0,66V33q7.1-4.05,14.2-8.23t14.35-8.38q7.25,4.22,14.39,8.31T57.33,33q-.39,16.23,0,32.76a.92.92,0,0,1-.58-.15M44.46,63.65c1.4-.73,2.81-1.51,4.21-2.34"/><path class="cls-1" d="M48.43,71.12m0,0q-4.49,2.53-9,5.16Q34.09,79.4,28.78,82.6q-7.25-4.21-14.39-8.31T0,66V32.06q0-8.12.08-16.27T0,.23V0Q4.53,2.49,8.42,4.91V28.08q5.31-2.8,10.26-5.73t9.87-5.74q5.46,3,10.88,6t10.88,6.2l7,4.21V66M28.78,26.21Q23.64,29,18.6,32T8.42,37.91V61.07L18.6,66.92q5,2.89,10,5.85Q33.7,70,38.73,67t10.18-5.93V37.91q-5.16-3-10.07-5.85T28.78,26.21Z"/></g><polygon class="cls-1" points="57.31 66 48.69 70.98 57.31 75.95 57.31 66"/></g></g></svg>