<svg xmlns="http://www.w3.org/2000/svg" xmlns:xlink="http://www.w3.org/1999/xlink" viewBox="0 0 120.56 138.78">
  <defs>
    <style>
      .cls-1 {
        fill: none;
      }

      .cls-2 {
        isolation: isolate;
      }

      .cls-3 {
        clip-path: url(#clip-path);
      }

      .cls-4 {
        mix-blend-mode: multiply;
        opacity: 0.75;
      }

      .cls-5 {
        fill: #fff;
      }
    </style>
    <clipPath id="clip-path" transform="translate(0.19 0)">
      <polygon class="cls-1" points="0 34.7 0 104.09 60.09 138.78 120.19 104.09 120.19 34.7 60.09 0 0 34.7"/>
    </clipPath>
  </defs>
  <g class="cls-2">
    <g id="Layer_2" data-name="Layer 2">
      <g id="Layer_13" data-name="Layer 13">
        <g class="cls-3">
          <g>
            <rect width="120.56" height="138.78"/>
            <g>
              <g class="cls-4">
                <path d="M60.67,41.06q7.24,4.21,14.39,8.3t14.39,8.31q-.39,16.23,0,32.76a.92.92,0,0,1-.58-.15,2.6,2.6,0,0,0-.59-.32c-1.2-.72-2.42-1.43-3.67-2.1s-2.52-1.38-3.82-2.11V65.39c0-.36,0-.83.08-1.4a3.81,3.81,0,0,0-.08-1.4c0-.11-.1-.24-.31-.4a5.18,5.18,0,0,0-.7-.42c-.26-.13-.52-.25-.78-.35l-.55-.24Q74,58.52,69.56,56t-8.89-5.14q-4.92,2.8-10,5.77T40.54,62.59V85.75q4.6,2.81,9.33,5.5l9.63,5.5a3.89,3.89,0,0,0,.58.43,1.48,1.48,0,0,0,.59.27,1.46,1.46,0,0,0,.58-.27,5,5,0,0,1,.82-.43l5.11-3c1.64-1,3.29-1.91,4.95-2.85q2.12,1.09,4.29,2.38t4.14,2.53q-4.92,2.82-10,5.74t-9.94,5.73L46.32,99q-7.11-4.09-14.2-8.3v-33q7.1-4.05,14.2-8.23T60.67,41.06ZM89.45,90.67a61.9,61.9,0,0,0,0,9.82Q85,98.23,80.79,95.7t-8.42-5c1.4-.84,2.81-1.62,4.21-2.34s2.81-1.51,4.21-2.34c1.41.72,2.82,1.5,4.25,2.34S87.94,89.94,89.45,90.67Z" transform="translate(0.19 0)"/>
                <path d="M60.67,41.06q7.24,4.21,14.39,8.3t14.39,8.31q-.39,16.23,0,32.76a.92.92,0,0,1-.58-.15,2.6,2.6,0,0,0-.59-.32c-1.2-.72-2.42-1.43-3.67-2.1s-2.52-1.38-3.82-2.11V65.39c0-.36,0-.83.08-1.4a3.81,3.81,0,0,0-.08-1.4c0-.11-.1-.24-.31-.4a5.18,5.18,0,0,0-.7-.42c-.26-.13-.52-.25-.78-.35l-.55-.24Q74,58.52,69.56,56t-8.89-5.14q-4.92,2.8-10,5.77T40.54,62.59V85.75q4.6,2.81,9.33,5.5l9.63,5.5a3.89,3.89,0,0,0,.58.43,1.48,1.48,0,0,0,.59.27,1.46,1.46,0,0,0,.58-.27,5,5,0,0,1,.82-.43l5.11-3c1.64-1,3.29-1.91,4.95-2.85q2.12,1.09,4.29,2.38t4.14,2.53q-4.92,2.82-10,5.74t-9.94,5.73L46.32,99q-7.11-4.09-14.2-8.3v-33q7.1-4.05,14.2-8.23T60.67,41.06ZM89.45,90.67a61.9,61.9,0,0,0,0,9.82Q85,98.23,80.79,95.7t-8.42-5c1.4-.84,2.81-1.62,4.21-2.34s2.81-1.51,4.21-2.34c1.41.72,2.82,1.5,4.25,2.34S87.94,89.94,89.45,90.67Z" transform="translate(0.19 0)"/>
              </g>
              <g>
                <g class="cls-4">
                  <path d="M60.67,41.06q7.24,4.21,14.39,8.3t14.39,8.31q-.39,16.23,0,32.76a.92.92,0,0,1-.58-.15,2.6,2.6,0,0,0-.59-.32c-1.2-.72-2.42-1.43-3.67-2.1s-2.52-1.38-3.82-2.11V65.39c0-.36,0-.83.08-1.4a3.81,3.81,0,0,0-.08-1.4c0-.11-.1-.24-.31-.4a5.18,5.18,0,0,0-.7-.42c-.26-.13-.52-.25-.78-.35l-.55-.24Q74,58.52,69.56,56t-8.89-5.14q-4.92,2.8-10,5.77T40.54,62.59V85.75q4.6,2.81,9.33,5.5l9.63,5.5a3.89,3.89,0,0,0,.58.43,1.48,1.48,0,0,0,.59.27,1.46,1.46,0,0,0,.58-.27,5,5,0,0,1,.82-.43l5.11-3c1.64-1,3.29-1.91,4.95-2.85q2.12,1.09,4.29,2.38t4.14,2.53q-4.92,2.82-10,5.74t-9.94,5.73L46.32,99q-7.11-4.09-14.2-8.3v-33q7.1-4.05,14.2-8.23T60.67,41.06ZM89.45,90.67a61.9,61.9,0,0,0,0,9.82Q85,98.23,80.79,95.7t-8.42-5c1.4-.84,2.81-1.62,4.21-2.34s2.81-1.51,4.21-2.34c1.41.72,2.82,1.5,4.25,2.34S87.94,89.94,89.45,90.67Z" transform="translate(0.19 0)"/>
                </g>
                <path class="cls-5" d="M60.67,41.06q7.24,4.21,14.39,8.3t14.39,8.31q-.39,16.23,0,32.76a.92.92,0,0,1-.58-.15,2.6,2.6,0,0,0-.59-.32c-1.2-.72-2.42-1.43-3.67-2.1s-2.52-1.38-3.82-2.11V65.39c0-.36,0-.83.08-1.4a3.81,3.81,0,0,0-.08-1.4c0-.11-.1-.24-.31-.4a5.18,5.18,0,0,0-.7-.42c-.26-.13-.52-.25-.78-.35l-.55-.24Q74,58.52,69.56,56t-8.89-5.14q-4.92,2.8-10,5.77T40.54,62.59V85.75q4.6,2.81,9.33,5.5l9.63,5.5a3.89,3.89,0,0,0,.58.43,1.48,1.48,0,0,0,.59.27,1.46,1.46,0,0,0,.58-.27,5,5,0,0,1,.82-.43l5.11-3c1.64-1,3.29-1.91,4.95-2.85q2.12,1.09,4.29,2.38t4.14,2.53q-4.92,2.82-10,5.74t-9.94,5.73L46.32,99q-7.11-4.09-14.2-8.3v-33q7.1-4.05,14.2-8.23T60.67,41.06ZM89.45,90.67a61.9,61.9,0,0,0,0,9.82Q85,98.23,80.79,95.7t-8.42-5c1.4-.84,2.81-1.62,4.21-2.34s2.81-1.51,4.21-2.34c1.41.72,2.82,1.5,4.25,2.34S87.94,89.94,89.45,90.67Z" transform="translate(0.19 0)"/>
              </g>
            </g>
            <path class="cls-5" d="M40.54,29.59V52.76Q45.85,50,50.8,47t9.87-5.73q5.46,3,10.88,6t10.88,6.2l7,4.21v33c-1.2.73-2.38,1.43-3.55,2.11s-2.4,1.38-3.7,2.11q-5.31,3-10.65,6.08T60.9,107.28Q53.66,103.07,46.51,99T32.12,90.66V56.73q0-8.1.08-16.26t-.08-15.56v-.23Q36.65,27.17,40.54,29.59ZM60.9,50.89q-5.15,2.8-10.18,5.77T40.54,62.58V85.75L50.72,91.6q5,2.88,10,5.85,5.14-2.81,10.18-5.77T81,85.75V62.58q-5.16-3-10.07-5.85T60.9,50.89Z" transform="translate(0.19 0)"/>
          </g>
        </g>
      </g>
    </g>
  </g>
</svg>
